<?xml version="1.0" encoding="utf-8"?>
<!-- Generator: Adobe Illustrator 26.5.3, SVG Export Plug-In . SVG Version: 6.00 Build 0)  -->
<svg version="1.1" id="Capa_1" xmlns="http://www.w3.org/2000/svg" xmlns:xlink="http://www.w3.org/1999/xlink" x="0px" y="0px"
	 viewBox="0 0 566.9 566.9" style="enable-background:new 0 0 566.9 566.9;" xml:space="preserve">
<style type="text/css">
	.st0{fill:#C6E7D3;}
	.st1{fill:#FF8D00;}
	.st2{fill:#E063EC;}
	.st3{fill:#00ADD8;}
</style>
<g>
	<g>
		<g>
			<path class="st0" d="M87.6,449.9l10.7-37.2h10.1l10.6,37.2h-5.9l-2.4-8.8H96.1l-2.4,8.8H87.6z M97.4,435.8h11.7l-5.4-19.6h-0.8
				L97.4,435.8z"/>
			<path class="st0" d="M126.2,449.9v-26.3h5.4v3.1h0.8c0.5-0.9,1.3-1.7,2.4-2.4c1.1-0.7,2.6-1.1,4.4-1.1c1.9,0,3.5,0.4,4.7,1.2
				c1.2,0.8,2.1,1.8,2.6,3.1h0.8c0.6-1.2,1.5-2.2,2.6-3.1c1.2-0.8,2.7-1.3,5-1.3c1.7,0,3.2,0.3,4.5,1.1c1.3,0.7,2.3,1.7,3.2,3.1
				c0.7,1.4,1.2,3.1,1.2,5.1v17.4h-5.5v-16.9c0-1.6-0.4-2.8-1.3-3.7c-0.8-0.8-2.1-1.3-3.7-1.3c-1.7,0-3.1,0.5-4.1,1.7
				c-1.1,1.1-1.6,2.6-1.6,4.7v15.6h-5.5v-17.1c0-1.6-0.4-2.8-1.3-3.7c-0.8-0.8-2.1-1.3-3.7-1.3c-1.7,0-3.1,0.5-4.1,1.7
				c-1.1,1.1-1.6,2.6-1.6,4.7v15.6L126.2,449.9L126.2,449.9z"/>
			<path class="st0" d="M182.2,450.7c-1.9,0-3.6-0.3-5.1-0.9s-2.6-1.6-3.5-2.8c-0.8-1.3-1.3-2.7-1.3-4.5s0.4-3.3,1.3-4.5
				c0.8-1.2,2-2.1,3.6-2.6c1.5-0.6,3.3-0.9,5.2-0.9h8v-1.7c0-1.5-0.4-2.7-1.4-3.7s-2.3-1.4-4.2-1.4s-3.3,0.4-4.3,1.4
				c-0.9,0.8-1.7,2-2,3.5l-5.1-1.7c0.4-1.4,1.2-2.7,2-3.9c0.9-1.2,2.2-2.1,3.8-2.7c1.6-0.7,3.5-1.1,5.6-1.1c3.4,0,6.1,0.8,8,2.6
				c1.9,1.7,3,4.2,3,7.4V444c0,1.1,0.5,1.6,1.5,1.6h2.2v4.5h-4.1c-1.3,0-2.2-0.3-3.1-0.9c-0.7-0.6-1.2-1.5-1.2-2.6V446h-0.8
				c-0.3,0.5-0.7,1.2-1.3,1.9c-0.5,0.7-1.4,1.4-2.5,1.8C185.4,450.4,184,450.7,182.2,450.7z M182.9,446.1c2.2,0,4-0.6,5.3-1.9
				c1.4-1.3,2-3,2-5.2v-0.5h-7.7c-1.5,0-2.6,0.3-3.5,0.9c-0.8,0.6-1.4,1.6-1.4,2.7s0.4,2.2,1.4,2.8
				C180.1,445.7,181.3,446.1,182.9,446.1z"/>
			<path class="st0" d="M205.8,449.9v-6.8l15.5-14.1v-0.7h-15v-4.6h20.9v6.8l-15.5,14.1v0.7h15.9v4.6H205.8z"/>
			<path class="st0" d="M239.4,420.1c-1.1,0-2-0.3-2.6-1.1c-0.7-0.7-1.1-1.6-1.1-2.6s0.3-2,1.1-2.6c0.7-0.7,1.6-1.1,2.6-1.1
				s2,0.3,2.7,1.1c0.7,0.7,1.1,1.6,1.1,2.6s-0.3,2-1.1,2.6C241.4,419.8,240.4,420.1,239.4,420.1z M236.6,449.9v-26.3h5.5v26.3H236.6
				z"/>
			<path class="st0" d="M252.3,449.9v-26.3h5.4v3.9h0.8c0.5-1.1,1.4-2,2.6-3c1.3-0.9,3.2-1.4,5.7-1.4c2,0,3.8,0.4,5.3,1.4
				c1.6,0.8,2.7,2.1,3.7,3.8c0.8,1.6,1.4,3.6,1.4,5.8v15.7h-5.5v-15.3c0-2.3-0.5-3.9-1.7-5.1c-1.2-1.1-2.7-1.6-4.6-1.6
				c-2.3,0-4.1,0.7-5.5,2.2s-2,3.7-2,6.5V450h-5.6L252.3,449.9L252.3,449.9z"/>
			<path class="st0" d="M287.1,449.9v-37.2h5.5v21.2h0.8l10.3-10.2h7.3l-13.3,12.8l13.7,13.5h-7.3l-10.8-10.9h-0.8V450L287.1,449.9
				L287.1,449.9z"/>
		</g>
		<g>
			<path class="st0" d="M346.8,465.7c-2.4,0-4.5-0.5-6.2-1.7c-1.7-1.2-2.7-3-3.2-5.5l3.2-0.6c0.2,1.4,0.6,2.3,1.3,3.2
				c0.5,0.7,1.4,1.3,2.2,1.6c0.8,0.3,1.8,0.4,2.7,0.4c1.5,0,2.6-0.3,3.6-0.8c0.9-0.5,1.4-1.5,1.4-2.4s-0.4-1.8-1.3-2.2
				c-0.8-0.4-2-0.7-3.5-0.9l-1.7-0.3c-1.4-0.2-2.4-0.5-3.6-0.9c-1.2-0.4-1.9-1.2-2.5-1.9c-0.6-0.7-0.8-1.8-0.8-3
				c0-1.8,0.6-3.3,2.1-4.2c1.4-0.9,3.3-1.6,5.6-1.6c2.2,0,4.1,0.5,5.5,1.6c1.5,0.9,2.3,2.4,2.6,4.3l-3,0.7c-0.2-1.5-0.7-2.4-1.8-3
				c-0.8-0.5-2.1-0.8-3.5-0.8c-1.4,0-2.4,0.2-3.3,0.7c-0.7,0.5-1.3,1.3-1.3,2.2s0.3,1.7,1.2,2.1c0.7,0.4,1.8,0.7,3,0.9l1.7,0.3
				c1.5,0.2,2.6,0.5,3.8,0.9c1.2,0.4,2,0.9,2.6,1.8c0.6,0.7,0.9,1.8,0.9,3.2c0,2-0.7,3.5-2.2,4.5
				C351.3,465.3,349.2,465.7,346.8,465.7z"/>
			<path class="st0" d="M367.6,465.2c-1.2,0-2-0.3-2.6-0.8c-0.6-0.6-0.8-1.5-0.8-2.5v-13.7h-6v-2.7h6v-7.2h3.3v7.2h6.5v2.7h-6.5
				v13.2c0,0.7,0.4,1.3,1.3,1.3h4.4v2.7L367.6,465.2L367.6,465.2z"/>
			<path class="st0" d="M387.1,465.5c-1.5,0-2.7-0.3-4-0.8c-1.3-0.6-2.1-1.6-2.8-2.7c-0.6-1.3-0.9-2.7-0.9-4.5v-12.1h3.3v11.8
				c0,2,0.4,3.5,1.5,4.3c0.9,0.8,2.3,1.4,4,1.4c1.9,0,3.5-0.6,4.6-1.9c1.2-1.3,1.9-3.2,1.9-5.6v-10h3.3v19.9h-3.2v-3.4h-0.5
				c-0.4,0.9-1.3,1.8-2.2,2.5C390.7,465.2,389.1,465.5,387.1,465.5z"/>
			<path class="st0" d="M413.4,465.7c-1.7,0-3.4-0.4-4.7-1.3c-1.5-0.7-2.5-2-3.5-3.6c-0.8-1.6-1.3-3.4-1.3-5.6v-0.5
				c0-2.1,0.4-4,1.3-5.5c0.8-1.6,2-2.6,3.5-3.6c1.5-0.7,3-1.3,4.7-1.3c1.4,0,2.5,0.2,3.6,0.5c0.9,0.3,1.8,0.7,2.3,1.4
				c0.5,0.5,1.2,1.2,1.4,1.8h0.5v-11.8h3.3v28.6h-3.2v-3.4h-0.5c-0.5,0.9-1.4,1.9-2.5,2.6C417.1,465.4,415.4,465.7,413.4,465.7z
				 M414.2,463c2.1,0,3.8-0.6,5-2c1.3-1.4,1.9-3.2,1.9-5.6v-0.3c0-2.3-0.6-4.2-1.9-5.6c-1.4-1.4-3-2-5-2s-3.7,0.6-5,2
				c-1.4,1.4-2,3.2-2,5.6v0.3c0,2.3,0.6,4.2,2,5.6S412.2,463,414.2,463z"/>
			<path class="st0" d="M433.3,442.2c-0.6,0-1.4-0.2-1.8-0.6s-0.6-0.9-0.6-1.8c0-0.7,0.2-1.4,0.6-1.8s1.2-0.6,1.8-0.6
				c0.6,0,1.4,0.2,1.8,0.6c0.4,0.4,0.6,1.2,0.6,1.8c0,0.6-0.2,1.4-0.6,1.8S434,442.2,433.3,442.2z M431.7,465.2v-19.9h3.3v19.9
				H431.7z"/>
			<path class="st0" d="M451.3,465.7c-2,0-3.8-0.4-5.4-1.3c-1.6-0.8-2.7-2-3.6-3.6c-0.8-1.6-1.4-3.4-1.4-5.5V455
				c0-2.1,0.4-3.9,1.4-5.5c0.8-1.6,2-2.7,3.6-3.6c1.6-0.8,3.4-1.3,5.4-1.3c2,0,3.8,0.4,5.4,1.3c1.6,0.8,2.7,2,3.6,3.6
				c0.8,1.6,1.4,3.4,1.4,5.5v0.5c0,2.1-0.4,3.9-1.4,5.5c-0.8,1.6-2,2.7-3.6,3.6C455.1,465.3,453.3,465.7,451.3,465.7z M451.3,462.9
				c2.1,0,3.8-0.6,5.2-2c1.3-1.4,1.9-3.2,1.9-5.5v-0.3c0-2.3-0.6-4.1-1.9-5.5c-1.3-1.4-3-2-5.2-2c-2.1,0-3.8,0.6-5,2
				c-1.4,1.4-1.9,3.2-1.9,5.5v0.3c0,2.3,0.6,4.1,1.9,5.5C447.6,462.3,449.2,462.9,451.3,462.9z"/>
			<path class="st0" d="M469.3,465.7c-0.7,0-1.5-0.2-2-0.7s-0.7-1.3-0.7-2c0-0.7,0.2-1.5,0.7-2s1.3-0.7,2-0.7s1.5,0.2,2,0.7
				c0.5,0.5,0.7,1.3,0.7,2c0,0.7-0.2,1.5-0.7,2C470.6,465.5,470,465.7,469.3,465.7z"/>
		</g>
	</g>
	<g>
		<g>
			<g>
				<path class="st0" d="M343.8,362.4c-0.8-7.2-6-10.2-12.1-11.1c-3.6-0.4-7.2-1.1-10.8-0.4c-2,0.3-2.1,0-1.8-2.1
					c0.6-4.9,1.3-9.7,1.9-14.6c0.5-4.3,0.9-8.7,2.2-12.9c1.4-4.5,1.8-9.2,2.8-13.8c0.6-3.1,0.9-6.3,1.6-9.4c0.9-4.4,1.8-9,2.6-13.4
					c1.4-6.3,3-12.6,3.9-19c0.6-4.1,1.4-8.1,2.3-12.1c1.1-4.3,1.1-8.8,2.3-13.1c0.9-3.4,1.7-6.8,2.1-10.2c0.4-3.6,1.1-7.2,1.9-10.7
					c0.3-1.3,0.3-2.5,0.1-3.8c-0.2-1.1-0.6-2-1.9-2.4c-3.4-1.2-6.9-0.8-10.3-1.2c-1.1-0.1-2.5-0.3-3.2,0.1c-1.7,0.9-3.7-0.3-5.2,0.9
					c-3.4-1.4-7-0.4-10.3-1.2c-0.8-0.2-1.8-0.2-2.5,0.1c-3.3,1.2-6.6,1.2-10,0.6c-3.4-0.6-6.6,0.2-9.9,0.4c-3.8,0.2-5.4,1.7-5.9,5.5
					c-0.2,2-0.2,4.1-0.4,6.1c-0.1,6.3,0.4,12.3,7,15.9c1.7,0.9,3.4,1.8,5.1,1.4c1.6-0.4,3,0.3,4.4,0.2c1.8-0.1,2.1,1.1,1.8,2.3
					c-0.9,3.5-1.1,7.2-1.9,10.7c-0.7,3-1.5,5.8-1.4,8.9c0,0.9-0.2,1.9-0.3,2.8c-0.3,4-1.7,7.7-2.1,11.7c-0.5,4.6-1.5,9.3-2.3,13.9
					c-0.8,4.7-1.4,9.5-2,14.3c-0.6,4.5-1.9,8.9-2.3,13.4c-0.4,5.4-1.7,10.7-2.5,16c-0.9,5.7-1.6,11.5-2.3,17.3
					c-0.6,5.4-2.3,10.6-3,15.9c-0.3,2.8-0.4,5.8-0.4,8.8c0,1.5,1.3,2.8,2.8,2.8c3.2,0,6.3,0.7,9.5,0.5c4-0.2,8.1-0.9,12-0.1
					c5.9,1.2,11.6,0.2,17.4,0.2c4.5,0,9.2-0.6,13.7-0.6c2.1,0,3.9-0.9,5.8-1.5c0.9-0.3,1.4-1.3,1.6-2.2
					C344.4,372.5,344.4,367.5,343.8,362.4z M289.7,216.6c-0.1,0.1-0.1,0.2-0.2,0.2c0,0.2-0.1,0.3-0.1,0.4c-0.1,0-0.1,0.2-0.2,0.3
					l0,0c-0.2,0.2-0.3,0.4-0.5,0.5c0,0.1-0.1,0.1-0.1,0.2c0-0.1-0.1,0-0.1-0.1v0.1l0,0c-0.1,0-0.1,0.1-0.2,0.2l0,0h-0.1
					c0,0.1-0.1,0.1,0,0.2l0,0c0.1,0,0.1,0.1,0.1,0.1c0,0.1,0,0.2,0,0.3c0,0,0,0,0.1,0c0,0,0,0-0.1,0c-0.2,0-0.5,0.3-0.6,0.4
					c0,0.1,0.1,0.2,0,0.4c0,0-0.2,0.2-0.1,0.2c0.2,0,0.1,0.1,0.1,0.2c-0.1,0.1,0,0.2-0.2,0.3c-0.1,0.1-0.2,0.1-0.2,0.1
					c-0.3,0.3-0.3,0.8-0.8,0.9c-0.2,0-0.7,0-0.8-0.3c0-0.1,0.2-0.7,0.3-0.7c-0.1,0,0,0.1-0.1,0.1c0-0.2,0-0.5,0.1-0.7
					c0-0.1,0.2-0.1,0.2-0.2l0,0c0,0-0.2-0.2-0.1-0.2c0-0.1,0.1,0,0.1-0.1c0.1,0,0.1,0,0.1,0v-0.1c0-0.1,0-0.1,0-0.2
					c-0.1,0-0.2-0.1,0.1-0.1c0,0-0.1-0.1,0-0.1c0-0.1-0.1-0.1-0.1-0.2c0.1-0.2,0.4-0.2,0.5-0.4l0,0c0,0,0.1-0.1,0.1-0.3
					s0.1-0.3,0.1-0.3l0,0c0.1-0.1,0.2-0.1,0.2-0.2c0.1-0.2,0.3-0.3,0.4-0.4c0.1,0,0.1,0.1,0.1,0c0.1-0.2,0.3-0.3,0.4-0.5
					c0.2-0.1,0.3-0.1,0.5-0.3c0.3-0.1,0.5-0.1,0.8,0l0,0c0.1,0.1,0.1,0,0.1,0.1C289.7,216.4,289.6,216.6,289.7,216.6z M284.9,377.1
					c0,0.1-0.1,0.1-0.1,0.2c-0.2,0.2-0.6,0.3-0.9,0.2c-0.1,0-0.1,0-0.2-0.1c0,0,0-0.1-0.1-0.1s-0.1,0-0.1,0c-0.1,0-0.1,0-0.2-0.1
					s-0.1-0.1-0.3-0.2c-0.1-0.1-0.2,0-0.2-0.2c-0.1-0.2,0.1-0.4-0.2-0.4h-0.1c-0.1,0,0-0.1,0.3-0.2c-0.5,0.2-0.4-0.1-0.2-0.2
					c0,0.1,0,0.1,0,0.1c0.1,0,0.1,0,0.1-0.1c-0.1,0-0.1,0-0.1,0l0.1-0.1c0,0,0,0,0.1,0c0,0,0,0,0.1,0h-0.1l0,0
					c0.3-0.1,0.3-0.3,0.4-0.5s0.4-0.3,0.7-0.3c0.1,0,0.3,0,0.3,0.1s0.1,0.3,0.1,0.4s-0.1,0.1-0.1,0.2s0,0.3,0.1,0.3
					c0,0,0.1,0.2,0.2,0.1l0,0v0.1c0.1,0,0.1,0.1,0.1,0.1l-0.1,0.1C284.9,376.6,285.1,376.9,284.9,377.1z M286.9,366.3
					c-0.1,0.1-0.4,0.3-0.4,0.5c-0.1,0.2,0,0.3-0.2,0.4c-0.1,0.1-0.2,0-0.3,0.1c-0.1,0.1-0.1,0.1-0.1,0.1c-0.4,0.3-0.7,0.1-1.1-0.3
					c-0.2-0.2-0.2-0.4-0.1-0.7c0-0.1,0.2-0.3,0.3-0.2c-0.1-0.1-0.1-0.1-0.2-0.1c0.1-0.1,0.2-0.1,0.3-0.1l0,0c0.1,0-0.2-0.3-0.1-0.3
					l0,0c0,0,0.1,0,0.1-0.1s0-0.2,0-0.2h0.1c-0.1-0.1-0.1-0.2-0.1-0.3c0-0.1,0.1-0.1,0-0.2c0.1-0.1,0.2-0.2,0.3-0.2l0,0
					c0.1,0,0,0,0.1,0s0.1,0.1,0.2,0.1c0,0.1,0.1,0.1,0.1,0.1c0.2,0.1,0.2,0.1,0.3,0.2c-0.1,0,0.1,0.1,0.1,0.2l0,0
					c0.1,0.2,0.1,0.3,0.1,0.4c0.1,0.1,0,0.1,0.1,0.1c0,0,0,0-0.1,0v0.1l0,0c0,0.1,0,0.1,0,0.2l0,0c0,0,0,0-0.1,0c0,0,0,0.1,0.1,0.1
					l0,0c0.1,0,0.1,0,0.1,0C286.7,366.1,286.8,366.2,286.9,366.3L286.9,366.3L286.9,366.3z M326.3,378.5l-0.1-0.2h0.2L326.3,378.5z"
					/>
			</g>
			<g>
				<path class="st1" d="M258.1,277.2c-1.1-1.6,0.9-1.9,0.7-3.2c-0.4-2,0.5-4,0.9-6c1.4-8.1,2.5-16.4,3.9-24.5
					c0.6-4,0.8-8.2,2.1-12.1c-0.7-0.7-0.4-1.3,0.1-1.9c0.9-3.1,1.2-6.2,1.9-9.3c0.9-3.6,1.4-7.2,2-10.7c0.5-2.8,0.9-5.8,1.6-8.7
					c0.7-3.1,1.2-6.1,1.6-9.2c0.4-3.5,1.2-6.9,1.9-10.3c0.7-3.7,1.5-7.4,2-11.1c0.4-3.4,1.2-6.8,1.8-10c1.5-7.7,2.8-15.5,4.2-23.2
					c0.1-0.6,0.4-1.5-0.1-1.8c-1.5-0.8-1.6-2.4-2.4-3.6c-0.4-0.6-0.8-1.3-1.7-1.5c-1.6-0.4-3.3-0.9-4.9-1.3
					c-4.7-0.9-9.5-1.8-14.5-2.1c-3.9-0.2-7.8-1.3-11.7-1.8c-2.8-0.4-5.5-0.5-8,1.7c-2.1,1.9-4.4,3.7-7.1,4.9c-0.9,0.4-0.9,1.3-1.4,2
					c-1.3,3-2.1,6-2.8,9.2c-1.1,4.9-3.2,9.5-3.7,14.5c-0.2,2.4-1.1,4.7-1.8,7.1c-0.2,0.7-0.5,1.5-0.7,2.2c-0.8,2.7-0.9,5.7-2,8.3
					c-1.2,2.8-2.3,5.8-2.5,8.9c-0.2,3.3-2.2,5.8-2.6,9.1c-0.5,4.2-2.3,8.3-3.5,12.6c-1.2,4.1-2.5,8.1-3.7,12.1
					c0.1,0.4-0.1,1.1-0.4,0.9l0,0v0.1v-0.1c-0.3-0.1-0.2-0.6,0-1.1c0.3-4.9-0.2-9.7,0.3-14.6c0.2-1.7,0.4-3.4,0.4-5.1
					c0-6.8,0.2-13.4,0.8-20.2c0.5-4.7,0-9.6,0.6-14.3c0.2-1.5,0.7-2.8,0.4-4.3c-0.7-3.5,0-7,0.3-10.4c0.3-4.3,1.4-8.5,1.8-12.8
					c0.3-3.2,0.4-6.3-1.6-9.2c-0.8-1.3-1.7-2.5-2.2-3.9c-1.3-3.1-3.6-4.1-6.6-4.5c-5.5-0.8-11-1.9-16.5-2.8
					c-5.4-0.9-10.8-2-16.1-3.1c-0.8-0.2-1.5,0-2.1,0.4c-1.9,1.2-3.7,2.5-4.1,5.1c-0.4,2.5-0.8,5.2-1.6,7.7c-0.5,1.8-1.4,3.7-1.3,5.5
					c0.4,5.5-1.7,10.6-2.5,15.8c-0.5,3.1-1.6,6.3-1.8,9.4c-0.4,5-1.7,9.6-2.5,14.5c-1.2,6.1-1.7,12.3-3.3,18.4
					c-1.2,4.5-2,9.2-2.3,13.8c-0.2,3.3-1.7,6.2-1.8,9.5c0,2.7-0.2,5.5-0.9,8.2c-1.1,4.1-1.6,8.2-2.2,12.5
					c-0.8,5.1-1.7,10.1-2.5,15.3c-0.8,5.1-1.1,10.2-1.9,15.4c-0.2,1.3-0.7,2.5-0.5,4c0.2,1.9,0.1,3.9-0.3,5.7
					c-0.5,1.8,0.5,3.6-0.4,5.5c-0.5,1.1,0,2.6,1.5,3.8c2.1,1.6,4.4,2.3,6.8,2.7c6.3,1.1,11.2,1.9,17.5,3.1c3.4,0.6,5.3-0.7,7.1-3.1
					c1.1-1.4,1.2-2.8,1.4-4.4c0.9-7.7,1.7-15.3,2.8-23c1.2-8.1,1.8-16.4,2.6-24.5c0.5-4.6,0.5-9.4,1.9-14c-0.2-2.6,1.4-5.7,2.1-8.2
					c-0.1-0.3-0.3-0.6-0.3-0.8c0-0.5,0.3-1.2,0.9-0.9c0.7,0.2,0.2,0.8,0.1,1.3c-0.2,2.5-0.4,5.1-0.7,7.7c0.5,1.2-0.1,2.3-0.1,3.4
					c-0.1,2.2,0.5,4.3,0.3,6.6c-0.3,3.8-0.5,7.5-0.6,11.3c0,2.3,0,4.6,0,7c0.1,4.3-0.5,8.5-0.4,13c0.2,7.8,0.3,15.6-0.5,23.3
					c-0.1,0.8,0.1,1.7,0.1,2.5c0.1,1.4,1.1,2.2,2.2,2.5c5.2,1.5,10.4,2.2,15.7,2.7c0.9,0.1,1.8,0.2,2.7,0.5c2.3,0.6,3.6,0.8,6,1.3
					c0.5,0.1,1.2,0.3,1.6,0c2.2-1.5,4.1-3.3,5.9-5.1c0.2-0.2,0.2-0.5,0.3-0.8c1.7-5.5,3.4-11,5.1-16.5c0.9-3,1.6-5.9,2.4-8.9
					c1.3-4.1,2.2-8.3,3.4-12.5c0.9-3.4,1.6-6.9,2.7-10c1.3-3.6,2.2-7.5,4-10.9c0-0.9,0.8-1.7,2-2.6c0.3,1.5,0.5,2.6-0.6,3.5
					c-0.2,0.7,0.9,0.8,0.7,1.6c-1.2,4.5-2.2,9-3.1,13.5c-1.3,6.8-2.5,13.5-4.2,20.2c-0.7,2.8-1.1,5.8-2,8.5c-1.5,4.3-2,8.8-3.2,13.1
					c-0.5,2,0.5,6.2,2.3,7.2c1.9,1.1,3.9,0.6,5.9,0.9c5.9,1.1,11.6,3,17.5,3.6c1.9,0.2,3.7,0,5.3-0.6c0.7-0.3,1.2-0.9,1.6-1.6
					c0.2-0.4,0.6-0.6,0.8-1.1c0.3-0.5,0.6-1.1,0.7-1.6c0.1-0.6,0.1-1.2,0.2-1.7c0.2-0.8,0.6-1.6,0.7-2.5c0.2-1.3,0.7-2.5,0.7-3.8
					c0-1.2,0.2-2.2,0.5-3.4C258,279.6,258.7,278,258.1,277.2z M142.7,251.7c-0.4-0.5-0.5-1.4-0.7-2c0.6-0.1,1.6-0.4,2-0.1
					c0.4,0.3,0.4,1.3,0.5,1.9C144,252.4,143.2,252.5,142.7,251.7z M143.1,269.8c-0.5,1.9-1.3,3.5-2.3,3.4c0-0.1,0-0.4,0-0.5
					c0,0-0.3,0.3-0.3,0.2c-1.7-0.7-0.3-5.2-0.2-7c0.1-2.4,0.1-4.6,0.3-6.9c0-0.4,0.3-0.8,0.2-1.4c0.2-0.6,0.5-1.3,0.9-1.8
					c0.2-0.1,0-0.1,0.3-0.2c0.3-0.1,1.5,2.1,1.6,2.4c0.4,1.3,0.1,3.2-0.5,4.2c0.1,0,0.2,0.5,0.5,0.5
					C144,263.9,143.9,267.2,143.1,269.8z M182.1,195.1c-0.3,0-0.5-0.3-0.3-0.6c0.1-0.1,0.3-0.2,0.5-0.1c0.1,0,0.1,0.3,0.2,0.4
					C182.4,194.9,182.2,195.1,182.1,195.1z M181.2,201.3c0-0.1,0-0.3,0-0.4c0,0,0.1-0.1,0.2-0.1c0,0.2,0.1,0.3,0.1,0.5
					C181.4,201.4,181.2,201.5,181.2,201.3z M181,207.4c-0.7-0.1-0.2-0.6-0.2-1.1s0-1.4,0.3-1.3c0.8,0.2,0.1,0.8,0.1,1.4
					C181.2,206.7,181.4,207.4,181,207.4z M188.6,200.2c0.2,3.1-0.7,7.6-2.3,7.8c-2.2,0.3-4-4.2-3.7-5.9c0.3-1.8,0.9-1.3,1.8-2.4
					c0.9-1.5,0.5-3.3,3.3-2.3C188.2,197.6,188.5,198.7,188.6,200.2z M201.5,194.3c-0.1,0-0.1,0-0.2-0.1c-0.5-0.3-0.4-0.7-0.7-1.2
					s-1.3-0.8-1.8-0.6c-0.2,0.1-0.3,0.4-0.5,0.1s0.2-0.8,0.4-1.2c0.4-0.4,0.6-0.8,0.9-1.4c0.1-0.2,0.1-0.4,0.2-0.6
					c0.1-0.2,0.4-0.3,0.6-0.4c0.3-0.2,0.3-0.3,0.4-0.6c0.1-0.4,0.3-0.8,0.4-1.3c-0.1,0.3-0.1,0.5-0.2,0.8c0.1-0.3,0.1-0.8,0.5-1.1
					c0,0.2-0.1,0.4,0,0.6c0,0.3,0.2,0.5,0.2,0.7c0,0.4-0.3,0.6-0.3,0.9c0,0.8-0.2,1.7-0.3,2.5c-0.1,0.1-0.1,0.4-0.2,0.5v0.1
					c0,0.2,0,0.3,0,0.5c0.1,0.2,0.3-0.7,0.4-0.7v0.1c0,0.1,0.1,0.7,0.2,0.8c0.2,0.3,0.5,0.1,0.5,0.5
					C202,194.1,201.8,194.4,201.5,194.3z M248.4,132.4c-0.6,1.1-1.8,2.1-2.5,2.4c-0.6,0.3-2.4,0.1-3.1-0.1c-1.8-0.6-0.8-1.9,0-2.7
					c0.9-0.9,3.5-2.6,5-2.1C249.2,130.2,249.1,131.3,248.4,132.4z M234.5,219.2c0.1,0.1,0.2,0.2,0.2,0.3s0,0.2-0.1,0.2
					c-0.2,0.2-0.3,0.2-0.4-0.1C234.3,219.6,234.5,219.4,234.5,219.2z M233.9,223.6c-0.3-0.1-0.1-0.7,0-1.1c-0.1-0.3,0.1-0.7,0.3-0.7
					s0.3,0.5,0.1,0.8C234.2,223.1,234.2,223.7,233.9,223.6z M235.7,217.3c-0.1,0.1-0.3,0.1-0.5,0.1c-0.1-0.1-0.2-0.3-0.2-0.4
					c0.1-0.3,0.4-0.4,0.6-0.2C235.7,216.9,235.8,217.2,235.7,217.3z M236.2,215.3c-0.2,0.2-0.3,0.2-0.3-0.1c0-0.1,0.1-0.1,0.1-0.2
					c0.1,0,0.2,0,0.2,0.1C236.2,215.1,236.2,215.2,236.2,215.3z M241.3,229.1c-0.4,2.1-2.1,4.2-4.4,3c0-0.8,0.8-1.5,1.2-2.2
					c0.5-1.4-0.2-3.4,1.4-4.3c0.1,0,0.1,0.1,0.3,0.1c0.1,0.1,0.2,0.2,0.2,0.3C241.1,226.3,241.5,227.7,241.3,229.1z"/>
			</g>
			<g>
				<path class="st2" d="M99.9,364c5-0.1,9.9,0,14.9,0.2c2,0.1,4,0.6,6-0.2c0.3,0.1,0.7-1.4,0.8,0.1c3.2,0,6.4-0.1,9.6-0.1
					c1.5,0,3,0.2,4.3,0c1.5-0.2,3,0.8,4.5-0.1c1.2-0.6,2.7,0.1,4.1,0.2c1.2,0,2.2-0.8,3.4-0.5c4.2,1.2,8.5,0.2,12.8,0.6
					c3.9,0.3,7.9-0.2,11.7,0.4c2.8,0.5,5.6-0.6,8.3,0.4c7.1-0.9,14.2-0.6,21.3-0.7c3.9-0.1,7.8-0.2,11.7,0
					c6.6,0.5,13.4-0.3,20.2,0.4c2.3,0.3,4.9,0.5,7.3,0.1c2.5-0.4,5-0.3,7.5-0.4c4.2-0.2,8.3,0.5,12.6-0.5c2.7-0.7,4.3-2.7,4.7-4.9
					c0.9-5.7,1.8-11.4,1.5-17.2c-0.1-1.9-0.3-3.8,0-5.7c0.9-5.2,0.6-10.3,0.6-15.5c0-0.9-0.4-1.6-1.1-2.2c-1.7-1.5-3.6-2.3-5.8-3
					c-3.6-1.2-7.3-2.3-11-3.1c-4.4-0.9-9-2-13.6-2.2c-9.3-0.3-18.3-2.7-27.5-3.4c-2.4-0.2-4.5-1.3-6.9-1.4
					c-11.2-0.6-22.3-2.8-33.2-4.6c-4-0.6-7.9-1.5-11.8-2.1c-6.1-1.1-12.2-1.9-18.3-2.8c-4.7-0.6-9.5-1.5-14.2-2.1s-9.6-1.4-14.2-2.5
					c-5.7-1.5-11.6-1.1-17.3-2.8c-1.9-0.6-3.7,0.5-5.2,1.9c-1.2,1.2-0.8,2.3-0.6,3.8c0.4,4,1.2,8,1.1,12c0,3-0.1,5.9,0.3,9
					c0.4,2.4,1.9,3.8,3.9,4.6c1.7,0.6,3.5,1.2,5.2,1.4c6.5,0.8,13,2.1,19.4,3.2c2.1,0.3,4.3,1.3,6.4,0.9c2.8-0.4,5.4,0.1,8.2,0.7
					c-1.2,1.7-0.7,3.5-0.6,5.3c-2.6,0.1-5-0.6-7.4-0.7c-7.7-0.4-15.3-0.8-22.9-2.2c-3-0.5-5.4,0.5-7.9,1.7c-1.2,0.5-1.5,1.5-1.7,2.8
					c-0.7,4.9,0,9.8-0.7,14.7c-0.2,1.2-0.4,2.3-0.2,3.5c0.3,3.1,1.2,6,1.1,9.2c0,1.3,0.4,2,1.4,2.6C94.8,364.4,97.3,364.1,99.9,364z
					 M261.6,326.5c-0.3-0.1-0.3-0.6-0.4-0.8c-0.2-0.7-0.6-0.9-0.9-1.6c-0.2-0.3-0.3-0.5-0.4-0.8c-0.1-0.1-0.2-0.1-0.2-0.2
					c0,0,0.1-0.4,0-0.4l0,0c-0.1,0-0.7-0.1-0.8-0.2c0,0,0,0-0.1,0c-0.2-0.6-0.7-0.8-1.3-1.4c-0.3-0.3-0.6-0.5-0.8-0.9
					c-0.3-0.5-0.3-0.7,0.1-1.2c0.5-0.4,0.8-0.3,1.5-0.3c0.4,0,0.8-0.4,1.3-0.2c0.4,0.1,0.7,0.5,1.2,0.7c0.4,0.2,1.2,0.1,1.6,0.4
					c0.4,0.4,0.1,1.1,0.4,1.5s0.9,0.3,1.3,0.6c0.3,0.3,0.4,0.8,0.1,1.3c-0.1,0.2-0.4,0.3-0.5,0.6c-0.1,0.2-0.1,0.6-0.1,0.9
					c0,0.4,0.1,0.7-0.1,1.1c-0.1,0.1-0.4,0.3-0.6,0.4c-0.3,0.2-0.5,0.6-0.9,0.6C261.7,326.5,261.7,326.5,261.6,326.5z M190.6,339.3
					c0,0.2-0.3,0.5-0.5,0.8c-0.3,0-0.7,0-0.8-0.1c-0.6-0.6-0.4-1.4,0.6-1.7C190.1,338.2,190.5,338.9,190.6,339.3z M149.1,333.6
					c0-0.2,0,0-0.1-0.2c0-0.1,0-0.1,0.1-0.3c0-0.1,0.1-0.2,0.1-0.3c0-0.4,0.1-0.8,0.1-1.3c0-0.3-0.1-0.4,0.2-0.4
					c0.2-0.1,0.2,0.1,0.4,0.1c0.1,0,0.2-0.1,0.3-0.1c0.2,0,0.3,0.4,0.5,0.3l0.1-0.1c0,0,0.2,0.3,0.3,0.4c0,0.1-0.1,0.1-0.1,0.2
					c-0.1,0.1,0,0.3-0.1,0.4c-0.1,0.4-0.5,0.9-0.8,1.2C149.7,334,149.4,334.1,149.1,333.6L149.1,333.6z M152.6,334.3
					c-0.2-2.5,0.8-5,0.5-7.5c-0.1-1.1,0.6-1.7,1.7-1.4c5.9,1.5,12,2.2,17.9,3.2c8.2,1.3,16.2,4,24.7,4.5c1.2,0.1,2.2,0.7,3.3,1.1
					c0.6,0,1.2,0.1,1.8,0.1c0.4-0.1,0.9,0,0.9,0.3c0,0.4-0.6,0.3-0.9,0.2c-0.4,0.9-1.3,0.7-2,0.4c-5.4,0-10.8,0.4-16.1-0.1
					c-0.2,0-0.4,0-0.6-0.1c-1.3-0.7-2,2.2-3.7,0.4c-0.8-0.9-2.8-0.3-4.3-0.2c-1.5,0.1-3-0.2-4.4-0.2c-1.5-0.1-3,0.3-4.3,0
					C162.2,334.3,157.5,335,152.6,334.3z M182.9,341.9c-0.5,0-1.1,0-1.5-0.1c-1.1-0.1-4-0.5-4.6-1.5c-2.2-3.3,7.3-2.5,8.7-1.5
					c0.9,0.7,0.1,1.9,0.4,2.5c0.1,0.2,0.2,0.3,0.1,0.5C185.1,341.9,184,341.9,182.9,341.9z"/>
			</g>
			<g>
				<path class="st0" d="M424.6,240.3L424.6,240.3L424.6,240.3L424.6,240.3z"/>
				<path class="st0" d="M443.9,207.3C443.9,207.3,443.9,207.4,443.9,207.3L443.9,207.3L443.9,207.3z"/>
				<path class="st3" d="M471.5,356.8c-0.8-2.7-2.3-5.3-2.6-8.1c-0.2-1.8,0-4-1.1-5.3c-1.9-2.5-1.7-5.5-2.4-8.1
					c-1.1-4-2.4-7.9-3.8-11.8c-0.8-2.3-1.4-4.7-1.8-7.1c-0.7-3.9-2.4-7.6-3-11.5c-0.3-2.7-1.9-5.3-2.5-7.8
					c-0.8-3.7-2.2-7.3-2.7-11.1c-0.2-1.9-0.4-4-1.3-5.6c-1.6-3.3-1.7-6.8-3-10c-0.5-1.4-1.6-2.8-1.5-4.5c0.1-2.5-0.8-4.9-1.7-7.1
					c-2.1-5.4-2.5-11-1.7-16.7c0.7-4.7,1.1-9.6,1.3-14.5c0.2-6.8,0.7-13.5,1.6-20.2c-0.4,0-0.8,0.1-1.3,0.1l0,0l0,0
					c0,0.1-0.1,0.2-0.1,0.3c0-0.1,0-0.2,0.1-0.3l0,0c-0.1,0.1-0.2,0.2-0.3,0.3c0-0.1,0-0.2,0-0.2c0.1-0.1,0.1-0.1,0.2-0.1l0,0l0,0
					l0,0c0.2-1.3-1.1-2.8,1.1-3.5c0.4-0.4,0.5-1.1,0.6-1.6c1.2-5.5,0.5-11.2,1.5-16.7c1.2-6.6,1.2-13.4,1.8-20.2
					c0.1-1.4,0.3-2.5-0.8-3.5c-1.2-0.8-2.2-1.7-3.8-1.4c-4.6,0.9-9.3,0.8-13.9,1.9c-3.8,0.8-7.8,1.2-11.6,2.2
					c-6.4,1.8-10.6,6.1-12,12.5c-1.1,4.4-0.9,9.2-1.6,13.7c-0.6,4.7-0.2,9.5-0.8,14.2c-0.6,5.1-1.2,10.2-1.2,15.3
					c0.1,5.4-0.3,10.8-0.7,16.1c-1.1-0.1-0.9-0.9-1.2-1.6c-1.6-5.4-1.9-10.9-2.3-16.4c-0.4-6.8-0.9-13.4-2.2-19.9
					c-0.9-5.1-1.3-10.2-1.7-15.3c-0.3-4.5-1.4-8.4-3.8-12c-1.5-2.3-4-4.1-6.5-4.2c-3.4-0.2-6.9,0.8-10.2,1.3
					c-4.1,0.5-8,1.9-12.1,2.1c-5.2,0.2-5.7,0.8-6.4,5.9c-0.1,0.6,0,1.4,0,2.1c0.2,3.5,0.9,7,1.3,10.3c0.3,3.5,1.2,7.1,0.8,10.8
					c-0.2,2.5,0.6,5.2,0.7,7.8c0.1,2.5,1.1,4.9,1.3,7.6c0.1,2-0.2,4.2,0.3,6c0.8,2.8,1.2,5.7,1.5,8.7c0.6,8,0.9,15.9,1.8,24
					c0.5,4.7,1.2,9.5,1.5,14.1c0.2,3.2,0,6.4,0.2,9.6c0.3,5.2,0,10.3,0.6,15.4c0.6,5.4,0.9,10.8,1.5,16c0.2,2-0.3,4.1,0.1,5.8
					c1.3,5,0.4,10.1,1.8,15.1c0.2,0.8,0.2,1.8,0.1,2.7c-0.2,2.6-0.2,5.5,0.2,7.9c0.8,4.4,1.9,8.8,2.6,13.2c0.2,1.5,0.5,3.1,1.2,4.3
					c0.7,1.4,1.2,3.5,2.7,3.9c2.2,0.7,4.4,2.2,7.1,1.5c1.8-0.5,3.8-0.5,5.6-0.1c2.6,0.6,5.2,0.2,7.7-0.1c1.9-0.2,3.7-0.6,5.6-0.7
					c4-0.1,7.1-1.9,8.3-6c0.2-0.5,0.4-1.1,0.4-1.7c0.1-1.8,0.9-3.4,0.3-5.4c-0.3-0.9,1.1-2.4,0.7-3.8c-1.1-4.2-1.2-8.4-1.4-12.7
					c-0.5-8.1-2.1-16-2.2-24.3c0-0.9,0.5-1.9,0-2.7c-1.5-2.6-0.5-5.6-0.7-8.3c-0.3-4,0.1-8-0.7-11.8c-0.8-3.7-0.5-7.3-0.7-11
					c1.3,0.3,1.2,1.3,1.3,2c1.2,5.4,2.1,10.9,3.6,16.1c1.4,5.4,2.4,10.9,4,16.2c2,6.6,4.4,13.4,4,20.7c0,0.3,0.1,0.7,0.3,0.9
					c2.5,3.1,2.6,7.1,3.7,10.7s1.8,7.4,3.1,11c2,5.4,4.5,10.2,10.9,11.6c2,0.4,4.2,0.4,6.1,0.9c2.4,0.6,4.5-0.5,6.9-0.4
					c5.8,0.2,11.5,1.1,17.3,0c3.8-0.6,5.1-2.2,4.6-5.8C471.9,358,471.7,357.4,471.5,356.8z M445.3,184c0.1,0.1,0.1,0.1,0.2,0.2
					c-0.1,0.1-0.1,0.1-0.2,0.2c-0.1-0.1-0.2-0.1-0.2-0.2C445.2,184.1,445.3,184,445.3,184z M358.8,182.5c-0.2-0.2-0.3-0.3-0.5-0.5
					c0.1-0.1,0.2-0.2,0.3-0.2c0.1,0,0.2,0.2,0.3,0.3C358.9,182.2,358.9,182.3,358.8,182.5z M364.1,183.4c-0.1-0.2-0.2-0.4-0.2-0.6
					c-0.1-0.2-0.1-0.6-0.2-0.7c-0.2-0.3-0.6-0.4-0.8-0.5c-0.3-0.2-0.3-0.4-0.5-0.7c-0.2-0.4-0.6-0.7-0.6-1.3c0-1.2,2-0.7,2.7-0.8
					c0.3,0,0.6-0.2,0.9-0.3c0.1-0.1,0.4-0.4,0.6-0.4c0.5,0,1.3,1.4,1.4,1.8c0.1,0.4,0.2,0.6,0.4,0.8c0.3,0.5,0,1.1-0.1,1.6
					c-0.4,1.2-1.8,0.4-2.3,1.1c-0.2,0.2-0.2,0.5-0.6,0.5C364.4,183.8,364.2,183.6,364.1,183.4z M384.6,358.3c0,0.4-0.1,0.7-0.4,1.1
					c-1.1,0.8-1.4-0.3-2.3-0.5c-0.5-0.1-0.8,0.3-1.2-0.3c-0.2-0.4,0.2-1.6,0.4-2c0.4-0.8,0.7-1.6,1.8-1.6c-0.5,0,0.7,1.6,0.7,1.7
					C384.2,357,384.6,357.4,384.6,358.3z M372.7,241.9c0,0.2,0.1,0.3,0.1,0.5s-0.1,0.4-0.1,0.6c0,0.2-0.1,0.3-0.2,0.4
					c0,0.1,0,0.2,0,0.3s0.1,0.3,0,0.4c-0.1,0.1-0.2,0-0.2-0.1c-0.1,0-0.1-0.1-0.2-0.1s-0.2,0-0.2-0.2c-0.1-0.2,0-0.6-0.1-0.9
					c-0.1-0.3-0.1-0.6,0-0.9c0-0.2,0-0.5,0.2-0.7c0.1-0.1,0.5-0.3,0.7-0.1C372.7,241.3,372.6,241.7,372.7,241.9L372.7,241.9z
					 M381.4,264c-0.3-0.1-0.7-0.1-1.1-0.1c-0.2,0-0.6,0-0.9-0.1c-0.2,0-0.3-0.2-0.4-0.3c-0.3-0.2-0.6-0.2-0.9-0.4
					c-0.2-0.2,0-0.4,0-0.7c0-0.3-0.1-0.6,0.3-0.6s0.6,0.4,1.1,0.3c-0.3-0.2,0.2-0.4,0.4-0.5c0.2-0.2,0.8-0.3,0.9-0.5s0-0.3,0.2-0.5
					c0.3-0.2,0.6-0.2,0.7-0.6c0.1-0.2,0.1-0.2,0.2-0.3c0.1-0.1,0.3-0.1,0.4-0.3c0-0.1,0-0.2,0-0.3c0.2-0.4,0.7-0.7,1.2-0.8
					c0.4-0.1,0.8-0.1,1.3,0c0.1,0,0.6,0.2,1.1,0.6c0.4,0.5,0.5,1.1,0.5,1.7c0,0.2,0,0.4-0.1,0.6c-0.1,0.3-0.1,0.6-0.4,0.7
					s-0.5,0.1-0.8,0.1c-0.2,0-0.5,0.1-0.7,0.2s-0.5,0.2-0.4,0.5c0.1,0.2,0.3,0.2,0.5,0.4c0.2,0.2,0.1,0.4,0,0.6
					c-0.2,0.1-2.2,0.1-1.7,0.7C382.4,264.3,381.9,264.1,381.4,264z M394.1,270.2c-0.1,0.2-0.6,0.1-0.8,0.2c-0.2,0.1-0.4,0.4-0.6,0.1
					c-0.1-0.2-0.1-0.4-0.2-0.5s-0.2-0.1-0.4-0.2c-0.2-0.1-0.2-0.2-0.2-0.4c0-0.2,0-0.3,0-0.5s0-0.4,0-0.5c0.1-0.2,0.3-0.2,0.4-0.4
					c0.1-0.1,0-0.4,0.3-0.4s0.6,0.5,0.7,0.7c0,0.1,0.3,0.4,0.3,0.4s0.2,0.3,0.3,0.4c0,0.2-0.1,0.3-0.1,0.5c0,0.1,0,0.3,0,0.4
					C394,269.8,394.1,270,394.1,270.2z M404.8,244.1c-0.2,0.1-0.5,0.1-0.7,0.2c-0.3,0.1-0.5,0.2-0.8,0.3c-0.5,0.2-1.2,0.3-1.7,0.1
					c-0.4-0.3-0.2-0.5-0.3-0.9c-0.1-0.4-0.3-0.8-0.2-1.3c0.1-1.3,1.2-0.5,1.9-0.2c0.5,0.2,1.2,0.3,1.6,0.6c0.3,0.2,0.6,0.5,0.4,0.9
					C404.9,244,404.9,244.1,404.8,244.1z M439.6,350.9c0,0.1-0.2,0.2-0.4,0.3h0.1c-0.2,0.1-0.3,0.1-0.4,0.4c-0.1,0.2,0,0.4-0.1,0.6
					c-0.2,0.3-0.2,0.4-0.1,0.7c0.1,0.2,0.2,0.4,0.2,0.6c0,0.4-0.4,0.4-0.1,0.9c0.2,0.3,0.1,0.6,0.2,1.1c0.1,0.3,0.4,0.4,0.5,0.7
					c0,0.1,0,0.1,0,0.2l-1.1,0.1c-0.4,0-0.9,0-1.5,0.2c-0.3,0.1-0.7,0.1-1.2,0.1c-0.3,0-0.8,0.3-1.3,0.2c-0.4-0.1-0.2-0.6-0.1-0.8
					c0.1-0.2,0.4-0.3,0.3-0.5c0-0.2-0.3-0.3-0.5-0.3s-0.4,0.1-0.5,0.1c-0.5-0.2,0-1.1,0.2-1.4s0.1-0.5-0.1-0.7s-0.2-0.2-0.2-0.5
					c0-0.1,0-0.2,0-0.3c0.1-0.1,0.2-0.2,0.3-0.3c0.2-0.1,0.4-0.2,0.7-0.3c0.2-0.1,0.4-0.3,0.6-0.4c0.1-0.1,0.3-0.2,0.3-0.3
					c0-0.1-0.1-0.3-0.1-0.3c0.1-0.2,0.3-0.1,0.5-0.2s0.2-0.3,0.4-0.4c0.2-0.1,0.4,0,0.5-0.1c0.2-0.1,0.4-0.2,0.6-0.2
					C438.5,349.9,439.9,350,439.6,350.9z M430.1,237.7v0.1c-0.2,0.8-0.6,1.5-0.8,2.3c-0.2,0.7-0.4,1.5-0.5,2.2
					c-1.2,0.2-1.8,0.6-3.1,0.4c-0.8-0.2-1.7-0.1-2.5-0.3c-0.5-0.1-0.8-0.4-0.9-0.9c-0.3-0.7-0.1-0.7,0.4-1.3
					c0.2-0.2,0.4-0.5,0.6-0.7c0.8-0.6,2.4-0.7,2.8-1.8C427.2,237.5,430.6,234.7,430.1,237.7z M445,355.1c-0.1,0.1-0.4,0.3-0.5,0.3
					c-0.2,0.2-0.1,0.1-0.2,0.3c-0.1,0.1-0.1,0.2-0.1,0.2c-0.1,0.2-0.5,0.6-0.2,0.7c0.2,0-0.2,0.2-0.3,0.3c-0.3,0.2,0,0.4-0.2,0.6
					c-0.1,0.3-0.7,0.4-0.9,0.3c-0.3,0-0.7-0.1-0.8-0.4c-0.1-0.3-0.4-1.6-0.8-1.5c0.2-0.1,0.4-0.3,0.5-0.5s0.2-0.7,0-0.8
					c0.2-0.1,0.4,0,0.6,0.1c-0.1,0-0.6-0.2-0.4-0.4c0.1-0.1,0.4,0.1,0.5,0.1c0.5,0.1,0.7-0.2,1.3-0.3c0.3-0.1,0.5,0.1,0.8,0.1
					c0.2,0,0.5-0.1,0.6,0.1c0.1,0.1,0,0.2,0,0.2c0,0.1,0.1,0.1,0.1,0.2C445,355.1,445,355.1,445,355.1z M449.7,357.6
					c0,0-0.1,0.1-0.2,0.1l0,0c-0.2,0-0.3,0.3-0.3,0.4c0,0.2,0,0.3-0.2,0.4c-0.1,0.1,0,0.3-0.1,0.4c0,0.3,0,0.4-0.1,0.6
					c0-0.1-0.1,0.2-0.2,0.3v0.1c-0.2,0.2-0.5,0.2-0.6,0.1c-0.1,0.1-0.1,0-0.3,0.1c0.1,0,0-0.1,0.1-0.2h-0.1v-0.1
					c0-0.1-0.2-0.1-0.2-0.2h-0.1c0,0,0-0.1,0.1-0.1c-0.1,0-0.1,0-0.3,0.1v-0.1c-0.1,0.1-0.1,0.1-0.2,0.2c-0.1,0-0.2,0-0.4,0
					c0,0.1,0,0.1,0,0.1v-0.1c0-0.2,0.1-0.5,0.1-0.6c0.1-0.2,0.3-0.4-0.1-0.4c-0.1,0-0.2,0-0.2-0.2c0-0.1,0.2-0.2,0.3-0.2
					c0.2-0.1,0.5-0.1,0.6-0.3c0.2-0.2,0.3-0.3,0.5-0.5c0.1-0.1,0.3-0.1,0.4-0.1s0.7-0.1,0.9-0.1c0.1,0-0.1,0,0,0
					C449.3,357.3,449.7,357.5,449.7,357.6z M457.9,316.8c-0.3-0.1-0.5-0.3-0.8-0.4c0.1-0.1,0.2-0.4,0.3-0.4c0.3-0.1,0.6-0.1,0.7,0.3
					C458.1,316.5,458,316.6,457.9,316.8z M468.4,363c-0.1,0.4-0.5,0.5-0.9,0.2c-0.8-0.1-1.5-0.6-1.3-1.5c0.3-0.7,0.8-0.4,1.2,0.2
					l0,0C468,362.1,468.5,362.3,468.4,363z"/>
				<path class="st0" d="M448.2,358.4L448.2,358.4L448.2,358.4z"/>
			</g>
		</g>
	</g>
</g>
</svg>
